<svg xmlns="http://www.w3.org/2000/svg" viewBox="0 0 180 180">
<defs>
<radialGradient id="g0" gradientUnits="userSpaceOnUse" cx="89.5" cy="86.65" r="68"><stop offset="0" stop-color="#ffb48e"/><stop offset=".42" stop-color="#e8603c"/><stop offset="1" stop-color="#a83820"/></radialGradient>
<clipPath id="c0"><path d="M88 94L-163.6 -69.39L147.81 -199.98L383.44 41.91Z"/></clipPath>
<radialGradient id="g1" gradientUnits="userSpaceOnUse" cx="93.62" cy="99.62" r="64.5"><stop offset="0" stop-color="#fff2d0"/><stop offset=".42" stop-color="#f4be78"/><stop offset="1" stop-color="#c08440"/></radialGradient>
<clipPath id="c1"><path d="M88 94L383.44 41.91L300.13 306.13L35.91 389.44Z"/></clipPath>
<radialGradient id="g2" gradientUnits="userSpaceOnUse" cx="80.85" cy="97.11" r="62"><stop offset="0" stop-color="#d6f8f4"/><stop offset=".42" stop-color="#5fcfd4"/><stop offset="1" stop-color="#267f92"/></radialGradient>
<clipPath id="c2"><path d="M88 94L35.91 389.44L-187.12 213.62L-163.6 -69.39Z"/></clipPath>
<filter id="w" x="-10%" y="-10%" width="120%" height="120%"><feTurbulence type="fractalNoise" baseFrequency=".021" numOctaves="3" seed="7"/><feDisplacementMap in="SourceGraphic" scale="24" xChannelSelector="R" yChannelSelector="G"/></filter>
<filter id="h" x="-40%" y="-40%" width="180%" height="180%"><feGaussianBlur stdDeviation="15"/></filter>
<filter id="s" x="-10%" y="-10%" width="120%" height="120%"><feGaussianBlur stdDeviation=".7"/></filter>
<radialGradient id="sg"><stop offset="0" stop-color="#fffaf4"/><stop offset=".25" stop-color="#fffaf4" stop-opacity=".55"/><stop offset="1" stop-color="#fffaf4" stop-opacity="0"/></radialGradient>
</defs>
<rect width="180" height="180" fill="#060609"/>
<g filter="url(#h)" opacity=".5"><g fill="url(#g0)" clip-path="url(#c0)"><circle cx="92.98" cy="69.5" r="43"/><circle cx="68.81" cy="55.52" r="22"/><circle cx="115.1" cy="67.37" r="18"/></g><g fill="url(#g1)" clip-path="url(#c1)"><circle cx="106.74" cy="112.74" r="38"/><circle cx="101.67" cy="133.71" r="18"/></g><g fill="url(#g2)" clip-path="url(#c2)"><circle cx="64.16" cy="104.37" r="36"/><circle cx="58.95" cy="125.7" r="17"/></g></g>
<g filter="url(#w)"><g filter="url(#s)"><g fill="url(#g0)" clip-path="url(#c0)"><circle cx="92.98" cy="69.5" r="43"/><circle cx="68.81" cy="55.52" r="22"/><circle cx="115.1" cy="67.37" r="18"/></g><g fill="url(#g1)" clip-path="url(#c1)"><circle cx="106.74" cy="112.74" r="38"/><circle cx="101.67" cy="133.71" r="18"/></g><g fill="url(#g2)" clip-path="url(#c2)"><circle cx="64.16" cy="104.37" r="36"/><circle cx="58.95" cy="125.7" r="17"/></g><g fill="none" stroke="#07060a" stroke-linecap="round"><path d="M88 94Q68.55 74.55 43.5 61.67M88 94Q113.12 82.81 141.48 81.16M88 94Q75.94 118.72 74.69 147.37" stroke-width="6"/><path d="M88 94L69.78 77.25M88 94L111.08 85.05M88 94L78.41 116.82" stroke-width="9.3"/></g></g></g>
<g fill="#fffaf4"><circle cx="99.4" cy="130.95" r="0.9" opacity="1"/><circle cx="86.02" cy="134.08" r="0.7" opacity="1"/><circle cx="50.83" cy="128.96" r="0.6" opacity="1"/><circle cx="101.04" cy="98.55" r="1.4" opacity="0.55"/><circle cx="71.07" cy="118.76" r="0.9" opacity="0.7"/><circle cx="50.91" cy="131.97" r="0.6" opacity="0.55"/><circle cx="100.35" cy="39.77" r="1.1" opacity="0.55"/><circle cx="62.12" cy="89.38" r="1.1" opacity="0.7"/><circle cx="82.85" cy="136.63" r="0.9" opacity="0.55"/><circle cx="59.67" cy="111.38" r="0.8" opacity="1"/><circle cx="87.09" cy="32.24" r="0.6" opacity="0.85"/><circle cx="107.42" cy="102.44" r="0.8" opacity="0.55"/><circle cx="109.19" cy="49.14" r="0.9" opacity="0.55"/><circle cx="63.78" cy="77.19" r="0.6" opacity="0.55"/><circle cx="144.61" cy="80.79" r="0.6" opacity="1"/><circle cx="120.84" cy="127.03" r="0.9" opacity="0.55"/><circle cx="80.11" cy="111.85" r="1.4" opacity="0.85"/><circle cx="109.79" cy="107.24" r="0.6" opacity="1"/><circle cx="72.77" cy="93.23" r="0.7" opacity="0.55"/><circle cx="90.31" cy="60.44" r="0.9" opacity="0.7"/><circle cx="70.72" cy="101.86" r="1.1" opacity="0.7"/><circle cx="83.4" cy="44.43" r="0.9" opacity="1"/><circle cx="108.92" cy="70.72" r="0.7" opacity="0.55"/><circle cx="147.99" cy="101.5" r="1.1" opacity="0.85"/><circle cx="87.87" cy="83.96" r="0.7" opacity="1"/><circle cx="86.93" cy="53.11" r="1.1" opacity="0.55"/><circle cx="92.38" cy="77.83" r="0.9" opacity="0.85"/><circle cx="90.49" cy="52.73" r="0.8" opacity="1"/><circle cx="94.13" cy="81.66" r="1.1" opacity="0.7"/><circle cx="90.78" cy="65.6" r="1.1" opacity="1"/><circle cx="116.77" cy="66.03" r="1.1" opacity="0.7"/><circle cx="74.1" cy="81.51" r="0.7" opacity="0.85"/><circle cx="59.52" cy="50.08" r="0.7" opacity="0.7"/><circle cx="123.53" cy="70.97" r="1.1" opacity="0.7"/><circle cx="60.71" cy="105.41" r="0.9" opacity="0.55"/><circle cx="94.87" cy="106.77" r="0.6" opacity="0.85"/><circle cx="134.22" cy="90.63" r="0.8" opacity="1"/><circle cx="51.67" cy="75.85" r="0.8" opacity="0.7"/><circle cx="61.85" cy="39.12" r="0.7" opacity="0.7"/><circle cx="93.66" cy="137.27" r="1.1" opacity="0.55"/><circle cx="144.58" cy="104.87" r="0.7" opacity="0.55"/><circle cx="100.97" cy="66.06" r="0.7" opacity="0.55"/><circle cx="94.91" cy="71.07" r="1.1" opacity="0.7"/><circle cx="96.94" cy="80.33" r="0.9" opacity="0.85"/><circle cx="49.95" cy="119.19" r="1.1" opacity="0.7"/><circle cx="56.99" cy="142.95" r="0.9" opacity="0.85"/></g>
<circle cx="88" cy="94" r="11" fill="url(#sg)"/><circle cx="88" cy="94" r="2.6" fill="#fffaf4"/>
</svg>