<svg xmlns="http://www.w3.org/2000/svg" viewBox="0 0 180 180"><defs><radialGradient id="r" gradientUnits="userSpaceOnUse" cx="101" cy="84.5" r="73.1"><stop offset=".04" stop-color="#f9d2bc"/><stop offset=".5" stop-color="#dd8768"/><stop offset="1" stop-color="#b0604c"/></radialGradient><radialGradient id="g" gradientUnits="userSpaceOnUse" cx="101" cy="84.5" r="73.1"><stop offset=".04" stop-color="#fff6dc"/><stop offset=".5" stop-color="#e8c98f"/><stop offset="1" stop-color="#b9955c"/></radialGradient><radialGradient id="t" gradientUnits="userSpaceOnUse" cx="101" cy="84.5" r="73.1"><stop offset=".04" stop-color="#d6f2ec"/><stop offset=".5" stop-color="#70c0c3"/><stop offset="1" stop-color="#3a8996"/></radialGradient><radialGradient id="b" gradientUnits="userSpaceOnUse" cx="101" cy="84.5" r="73.1"><stop offset=".04" stop-color="#93abc9"/><stop offset=".5" stop-color="#55749f"/><stop offset="1" stop-color="#3b5680"/></radialGradient><filter id="e" x="-20%" y="-20%" width="140%" height="140%"><feGaussianBlur stdDeviation="3.2"/></filter><mask id="c"><path d="M76.9 29.5C84.7 27.5 93.7 29.2 100.5 31.2C107.4 33.2 112 39.6 117.8 41.5C123.5 43.4 130.3 39.9 134.9 42.4C139.6 44.9 144.5 51.3 145.7 56.5C146.9 61.8 141.8 67.7 142.3 73.8C142.7 79.8 148.8 86.3 148.3 93.1C147.8 99.9 144 109.2 139.2 114.6C134.5 120 124.9 121 119.9 125.3C114.9 129.6 114.5 136.3 109.1 140.4C103.8 144.5 94.8 149.4 87.6 149.9C80.5 150.3 71.4 147.1 66.2 143C60.9 138.9 60.8 130.4 56.3 125.3C51.7 120.3 43.1 118.5 39.1 112.5C35 106.4 32 96.7 32.2 88.8C32.3 80.9 36.3 72.7 39.9 65.2C43.5 57.6 47.5 49.2 53.7 43.2C59.8 37.3 69.1 31.5 76.9 29.5Z" fill="#fff" filter="url(#e)"/></mask><filter id="m" x="-50%" y="-50%" width="200%" height="200%"><feGaussianBlur stdDeviation="5"/></filter><filter id="l" x="-20%" y="-20%" width="140%" height="140%"><feGaussianBlur stdDeviation="2.56"/></filter><filter id="w" x="-15%" y="-15%" width="130%" height="130%"><feTurbulence type="fractalNoise" baseFrequency=".019" numOctaves="4" seed="9"/><feDisplacementMap in="SourceGraphic" scale="30" xChannelSelector="R" yChannelSelector="G"/><feGaussianBlur stdDeviation=".9"/></filter><filter id="h" x="-40%" y="-40%" width="180%" height="180%"><feGaussianBlur stdDeviation="14"/></filter></defs>
<rect width="180" height="180" fill="#060609"/>
<g filter="url(#h)" opacity=".5"><g mask="url(#c)"><rect width="180" height="180" fill="url(#r)"/><path fill="url(#g)" d="M117.8 22.1L109.6 43.6L112.2 60.9L100.1 76.8L101.8 91.4L115.6 103.4L126.8 117.2L147.8 131.8L193 131.8L193 -5.8L117.8 -5.8Z"/><path fill="url(#t)" d="M25.3 123.2L46.8 114.6L58 102.6L72.6 99.1L83.8 86.2L100.5 82.8L101.8 91.4L115.6 103.4L126.8 117.2L147.8 131.8L167.2 192L-4.8 192L-4.8 123.2Z"/><g filter="url(#m)"><ellipse cx="42.5" cy="82.3" rx="16.3" ry="26.7" transform="rotate(12 42.5 82.3)" fill="url(#b)" opacity="1"/><ellipse cx="53.7" cy="120.6" rx="18.1" ry="12" transform="rotate(30 53.7 120.6)" fill="url(#b)" opacity="1"/><ellipse cx="134.9" cy="54.4" rx="12" ry="14.6" transform="rotate(0 134.9 54.4)" fill="#8f9fd6" opacity="0.8"/><ellipse cx="79" cy="56.5" rx="19.8" ry="6.4" transform="rotate(-28 79 56.5)" fill="#f6d9b8" opacity="0.55"/><ellipse cx="126.3" cy="86.6" rx="6.9" ry="18.1" transform="rotate(18 126.3 86.6)" fill="#fff4d6" opacity="0.6"/><ellipse cx="87.6" cy="125.3" rx="15.5" ry="6.4" transform="rotate(-22 87.6 125.3)" fill="#c9f0ea" opacity="0.6"/><ellipse cx="85.5" cy="73.8" rx="5.6" ry="13.8" transform="rotate(30 85.5 73.8)" fill="#e8c98f" opacity="0.5"/></g></g></g>
<g filter="url(#w)"><g mask="url(#c)"><rect width="180" height="180" fill="url(#r)"/><path fill="url(#g)" d="M117.8 22.1L109.6 43.6L112.2 60.9L100.1 76.8L101.8 91.4L115.6 103.4L126.8 117.2L147.8 131.8L193 131.8L193 -5.8L117.8 -5.8Z"/><path fill="url(#t)" d="M25.3 123.2L46.8 114.6L58 102.6L72.6 99.1L83.8 86.2L100.5 82.8L101.8 91.4L115.6 103.4L126.8 117.2L147.8 131.8L167.2 192L-4.8 192L-4.8 123.2Z"/><g filter="url(#m)"><ellipse cx="42.5" cy="82.3" rx="16.3" ry="26.7" transform="rotate(12 42.5 82.3)" fill="url(#b)" opacity="1"/><ellipse cx="53.7" cy="120.6" rx="18.1" ry="12" transform="rotate(30 53.7 120.6)" fill="url(#b)" opacity="1"/><ellipse cx="134.9" cy="54.4" rx="12" ry="14.6" transform="rotate(0 134.9 54.4)" fill="#8f9fd6" opacity="0.8"/><ellipse cx="79" cy="56.5" rx="19.8" ry="6.4" transform="rotate(-28 79 56.5)" fill="#f6d9b8" opacity="0.55"/><ellipse cx="126.3" cy="86.6" rx="6.9" ry="18.1" transform="rotate(18 126.3 86.6)" fill="#fff4d6" opacity="0.6"/><ellipse cx="87.6" cy="125.3" rx="15.5" ry="6.4" transform="rotate(-22 87.6 125.3)" fill="#c9f0ea" opacity="0.6"/><ellipse cx="85.5" cy="73.8" rx="5.6" ry="13.8" transform="rotate(30 85.5 73.8)" fill="#e8c98f" opacity="0.5"/></g><g fill="none" stroke="#07060a" stroke-linecap="round" filter="url(#l)"><path d="M117.8 22.1C116.4 25.7 110.5 37.2 109.6 43.6C108.6 50.1 113.7 55.3 112.2 60.9C110.6 66.4 101.8 71.7 100.1 76.8C98.4 81.8 99.3 86.9 101.8 91.4C104.4 95.8 111.4 99.1 115.6 103.4C119.8 107.7 121.4 112.5 126.8 117.2C132.2 121.9 144.3 129.4 147.8 131.8" stroke-width="2.86" opacity="0.85"/><path d="M112.2 60.9C110.2 63.5 101.8 71.7 100.1 76.8C98.4 81.8 99.3 86.9 101.8 91.4C104.4 95.8 113.3 101.4 115.6 103.4" stroke-width="7.76" opacity="1"/><path d="M117.8 22.1C116.4 25.7 110.5 37.2 109.6 43.6C108.6 50.1 111.7 58 112.2 60.9" stroke-width="4.9" opacity="0.7"/><path d="M115.6 103.4C117.5 105.7 124.9 114.9 126.8 117.2" stroke-width="5.31" opacity="0.8"/><path d="M100.5 82.8C97.8 83.4 88.4 83.5 83.8 86.2C79.1 88.9 74.5 97 72.6 99.1" stroke-width="6.54" opacity="1"/><path d="M72.6 99.1C70.2 99.7 62.3 100 58 102.6C53.7 105.1 52.2 111.2 46.8 114.6C41.4 118 28.9 121.8 25.3 123.2" stroke-width="3.06" opacity="0.8"/><path d="M58 102.6C56.1 104.6 48.7 112.6 46.8 114.6" stroke-width="6.13" opacity="0.75"/><path d="M74.3 96.5C73.3 94.1 68.4 86.4 68.3 81.9C68.2 77.5 73.2 73.6 73.5 69.9C73.7 66.2 70.6 61.3 70 59.6" stroke-width="2.86" opacity="0.7"/><path d="M68.3 81.9C69.2 79.9 72.6 71.9 73.5 69.9" stroke-width="5.31" opacity="0.6"/></g></g></g>
<g fill="#fffaf4"><circle cx="77.5" cy="46.9" r="0.6" opacity="0.5"/><circle cx="78.2" cy="140" r="0.6" opacity="0.7"/><circle cx="92.4" cy="71.9" r="0.7" opacity="0.5"/><circle cx="61.2" cy="61.2" r="0.7" opacity="0.85"/><circle cx="64.8" cy="133.8" r="0.9" opacity="0.5"/><circle cx="131.4" cy="69.2" r="1.1" opacity="0.7"/><circle cx="51.3" cy="85.8" r="0.6" opacity="0.85"/><circle cx="114.6" cy="66" r="1.5" opacity="0.7"/><circle cx="79.7" cy="101.1" r="1.1" opacity="1"/><circle cx="49.4" cy="65.2" r="0.6" opacity="0.5"/><circle cx="63.7" cy="93.2" r="1.1" opacity="0.85"/><circle cx="47.4" cy="110.2" r="0.6" opacity="1"/><circle cx="139.6" cy="105.5" r="1.1" opacity="0.85"/><circle cx="52" cy="81.2" r="1.5" opacity="0.85"/><circle cx="106.1" cy="52.2" r="0.9" opacity="0.5"/><circle cx="130.7" cy="114.4" r="0.9" opacity="0.7"/><circle cx="72.9" cy="38.1" r="0.9" opacity="0.85"/><circle cx="79.3" cy="143.1" r="1.5" opacity="0.5"/><circle cx="65.2" cy="51.4" r="1.1" opacity="0.85"/><circle cx="46.4" cy="74.6" r="0.7" opacity="0.85"/><circle cx="98.8" cy="72.3" r="1.1" opacity="0.7"/><circle cx="73.8" cy="126.1" r="0.9" opacity="0.5"/><circle cx="82.7" cy="53.3" r="0.7" opacity="0.5"/><circle cx="50.2" cy="110.6" r="0.7" opacity="0.5"/><circle cx="95.5" cy="99.1" r="0.9" opacity="0.5"/><circle cx="44.7" cy="92.6" r="1.1" opacity="0.7"/><circle cx="87.3" cy="57.5" r="1.1" opacity="1"/><circle cx="129.7" cy="88.8" r="0.6" opacity="0.5"/><circle cx="60.5" cy="57.6" r="0.7" opacity="0.7"/><circle cx="80.1" cy="59.9" r="0.9" opacity="0.5"/><circle cx="136.9" cy="66.4" r="0.6" opacity="1"/><circle cx="134.5" cy="115.5" r="0.6" opacity="1"/><circle cx="76.5" cy="80.5" r="1.5" opacity="0.7"/><circle cx="70.4" cy="108.1" r="0.9" opacity="1"/><circle cx="93.4" cy="107.9" r="0.9" opacity="0.85"/><circle cx="50.1" cy="105.5" r="1.5" opacity="1"/><circle cx="127.2" cy="123.5" r="0.7" opacity="0.5"/><circle cx="110.6" cy="68.3" r="1.5" opacity="1"/><circle cx="139.8" cy="81.6" r="0.6" opacity="0.5"/><circle cx="113.5" cy="41.8" r="1.5" opacity="0.85"/><circle cx="103" cy="44.9" r="0.9" opacity="0.5"/><circle cx="122.1" cy="91.8" r="0.6" opacity="0.85"/><circle cx="40.2" cy="94.3" r="1.1" opacity="0.7"/><circle cx="124.5" cy="66" r="0.7" opacity="1"/><circle cx="132.7" cy="76.8" r="0.6" opacity="0.5"/><circle cx="79.9" cy="114.8" r="1.1" opacity="0.5"/><circle cx="105.4" cy="142.8" r="0.9" opacity="1"/><circle cx="80.7" cy="125.4" r="0.7" opacity="0.85"/><circle cx="47.9" cy="88.3" r="0.9" opacity="0.85"/><circle cx="95" cy="138.3" r="0.7" opacity="0.5"/></g></svg>